<svg width="16.500000" height="20.000000" viewBox="0 0 16.5 20" fill="none" xmlns="http://www.w3.org/2000/svg"
>
    <desc>
        Created with Pixso.
    </desc>
    <defs/>
    <rect id="Info" rx="-0.500000" width="15.000000" height="15.000000" transform="translate(0.750000 2.500000)"
          fill="#FFFFFF" fill-opacity="0"/>
    <path id="Vector"
          d="M0 2.5C0 1.83 0.26 1.2 0.73 0.73C1.2 0.26 1.83 0 2.5 0L14 0C14.32 0 14.65 0.06 14.95 0.19C15.26 0.31 15.53 0.5 15.76 0.73C15.99 0.96 16.18 1.23 16.3 1.54C16.43 1.84 16.5 2.17 16.5 2.5L16.5 16.75C16.5 16.94 16.42 17.13 16.28 17.28C16.13 17.42 15.94 17.5 15.75 17.5L2.28 17.5C1.85 17.5 1.48 17.9 1.79 18.2C1.98 18.39 2.23 18.5 2.5 18.5L15.75 18.5C15.94 18.5 16.13 18.57 16.28 18.71C16.42 18.86 16.5 19.05 16.5 19.25C16.5 19.44 16.42 19.63 16.28 19.78C16.13 19.92 15.94 20 15.75 20L2.5 20C1.83 20 1.2 19.73 0.73 19.26C0.26 18.79 0 18.16 0 17.5L0 2.5ZM8.25 6C8.51 6 8.76 5.89 8.95 5.7C9.14 5.51 9.25 5.26 9.25 5C9.25 4.73 9.14 4.48 8.95 4.29C8.76 4.1 8.51 4 8.25 4C7.98 4 7.73 4.1 7.54 4.29C7.35 4.48 7.25 4.73 7.25 5C7.25 5.26 7.35 5.51 7.54 5.7C7.73 5.89 7.98 6 8.25 6ZM7.5 7.75L7.5 12.75C7.5 12.94 7.57 13.13 7.71 13.28C7.86 13.42 8.05 13.5 8.25 13.5C8.44 13.5 8.63 13.42 8.78 13.28C8.92 13.13 9 12.94 9 12.75L9 7.75C9 7.55 8.92 7.36 8.78 7.21C8.63 7.07 8.44 7 8.25 7C8.05 7 7.86 7.07 7.71 7.21C7.57 7.36 7.5 7.55 7.5 7.75Z"
          fill="#74A2B2" fill-opacity="1.000000" fill-rule="nonzero"/>
    <path id="Vector"
          d="M0 2.5C0 1.83 0.26 1.2 0.73 0.73C1.2 0.26 1.83 0 2.5 0L14 0C14.32 0 14.65 0.06 14.95 0.19C15.26 0.31 15.53 0.5 15.76 0.73C15.99 0.96 16.18 1.23 16.3 1.54C16.43 1.84 16.5 2.17 16.5 2.5L16.5 16.75C16.5 16.94 16.42 17.13 16.28 17.28C16.13 17.42 15.94 17.5 15.75 17.5L2.28 17.5C1.85 17.5 1.48 17.9 1.79 18.2C1.98 18.39 2.23 18.5 2.5 18.5L15.75 18.5C15.94 18.5 16.13 18.57 16.28 18.71C16.42 18.86 16.5 19.05 16.5 19.25C16.5 19.44 16.42 19.63 16.28 19.78C16.13 19.92 15.94 20 15.75 20L2.5 20C1.83 20 1.2 19.73 0.73 19.26C0.26 18.79 0 18.16 0 17.5L0 2.5ZM8.25 6C8.51 6 8.76 5.89 8.95 5.7C9.14 5.51 9.25 5.26 9.25 5C9.25 4.73 9.14 4.48 8.95 4.29C8.76 4.1 8.51 4 8.25 4C7.98 4 7.73 4.1 7.54 4.29C7.35 4.48 7.25 4.73 7.25 5C7.25 5.26 7.35 5.51 7.54 5.7C7.73 5.89 7.98 6 8.25 6ZM7.5 7.75L7.5 12.75C7.5 12.94 7.57 13.13 7.71 13.28C7.86 13.42 8.05 13.5 8.25 13.5C8.44 13.5 8.63 13.42 8.78 13.28C8.92 13.13 9 12.94 9 12.75L9 7.75C9 7.55 8.92 7.36 8.78 7.21C8.63 7.07 8.44 7 8.25 7C8.05 7 7.86 7.07 7.71 7.21C7.57 7.36 7.5 7.55 7.5 7.75Z"
          fill="#5ED3F3" fill-opacity="0" fill-rule="nonzero"/>
    <path id="Vector"
          d="M0 2.5C0 1.83 0.26 1.2 0.73 0.73C1.2 0.26 1.83 0 2.5 0L14 0C14.32 0 14.65 0.06 14.95 0.19C15.26 0.31 15.53 0.5 15.76 0.73C15.99 0.96 16.18 1.23 16.3 1.54C16.43 1.84 16.5 2.17 16.5 2.5L16.5 16.75C16.5 16.94 16.42 17.13 16.28 17.28C16.13 17.42 15.94 17.5 15.75 17.5L2.28 17.5C1.85 17.5 1.48 17.9 1.79 18.2C1.98 18.39 2.23 18.5 2.5 18.5L15.75 18.5C15.94 18.5 16.13 18.57 16.28 18.71C16.42 18.86 16.5 19.05 16.5 19.25C16.5 19.44 16.42 19.63 16.28 19.78C16.13 19.92 15.94 20 15.75 20L2.5 20C1.83 20 1.2 19.73 0.73 19.26C0.26 18.79 0 18.16 0 17.5L0 2.5ZM8.25 6C8.51 6 8.76 5.89 8.95 5.7C9.14 5.51 9.25 5.26 9.25 5C9.25 4.73 9.14 4.48 8.95 4.29C8.76 4.1 8.51 4 8.25 4C7.98 4 7.73 4.1 7.54 4.29C7.35 4.48 7.25 4.73 7.25 5C7.25 5.26 7.35 5.51 7.54 5.7C7.73 5.89 7.98 6 8.25 6ZM7.5 7.75L7.5 12.75C7.5 12.94 7.57 13.13 7.71 13.28C7.86 13.42 8.05 13.5 8.25 13.5C8.44 13.5 8.63 13.42 8.78 13.28C8.92 13.13 9 12.94 9 12.75L9 7.75C9 7.55 8.92 7.36 8.78 7.21C8.63 7.07 8.44 7 8.25 7C8.05 7 7.86 7.07 7.71 7.21C7.57 7.36 7.5 7.55 7.5 7.75Z"
          fill="#4875F0" fill-opacity="0" fill-rule="nonzero"/>
</svg>
