<svg width="18.000000" height="18.000002" viewBox="0 0 18 18" fill="none" xmlns="http://www.w3.org/2000/svg"
>
    <desc>
        Created with Pixso.
    </desc>
    <defs/>
    <rect id="Vector" rx="-0.500000" width="15.000000" height="15.000000" transform="translate(1.500000 1.500000)"
          fill="#FFFFFF" fill-opacity="0"/>
    <path id="Vector"
          d="M3 16L10 16C10.55 16 11 15.55 11 15L11 12C11 11.71 11.09 11.47 11.28 11.28C11.48 11.09 11.71 10.99 12 11L15 11C15.55 11 16 10.55 16 10L16 3C16 2.44 15.55 2 15 2L3 2C2.44 2 2 2.44 2 3L2 15C2 15.55 2.44 16 3 16ZM2 18C1.45 18 0.97 17.8 0.58 17.41C0.19 17.02 -0.01 16.54 0 16L0 2C0 1.45 0.19 0.97 0.58 0.58C0.98 0.19 1.45 -0.01 2 1.9e-6L16 1.9e-6C16.54 1.9e-6 17.02 0.19 17.41 0.58C17.8 0.98 18 1.45 18 2L18 11.58C18 11.85 17.89 12.1 17.7 12.29L12.29 17.7C12.1 17.89 11.85 18 11.58 18L2 18ZM5 11C4.71 11 4.47 10.9 4.28 10.71C4.09 10.52 3.99 10.28 4 10C4 9.71 4.09 9.47 4.28 9.28C4.48 9.09 4.71 8.99 5 9L8 9C8.28 9 8.52 9.09 8.71 9.28C8.9 9.47 9 9.71 9 10C9 10.28 8.9 10.52 8.71 10.71C8.51 10.9 8.28 11 8 11L5 11ZM5 7C4.71 7 4.47 6.9 4.28 6.71C4.09 6.52 3.99 6.28 4 6C4 5.71 4.09 5.47 4.28 5.28C4.48 5.09 4.71 4.99 5 5L13 5C13.28 5 13.52 5.09 13.71 5.28C13.9 5.48 14 5.71 14 6C14 6.28 13.9 6.52 13.71 6.71C13.52 6.9 13.28 7 13 7L5 7Z"
          fill="#74A2B2" fill-opacity="1.000000" fill-rule="nonzero"/>
    <path id="Vector"
          d="M3 16L10 16C10.55 16 11 15.55 11 15L11 12C11 11.71 11.09 11.47 11.28 11.28C11.48 11.09 11.71 10.99 12 11L15 11C15.55 11 16 10.55 16 10L16 3C16 2.44 15.55 2 15 2L3 2C2.44 2 2 2.44 2 3L2 15C2 15.55 2.44 16 3 16ZM2 18C1.45 18 0.97 17.8 0.58 17.41C0.19 17.02 -0.01 16.54 0 16L0 2C0 1.45 0.19 0.97 0.58 0.58C0.98 0.19 1.45 -0.01 2 1.9e-6L16 1.9e-6C16.54 1.9e-6 17.02 0.19 17.41 0.58C17.8 0.98 18 1.45 18 2L18 11.58C18 11.85 17.89 12.1 17.7 12.29L12.29 17.7C12.1 17.89 11.85 18 11.58 18L2 18ZM5 11C4.71 11 4.47 10.9 4.28 10.71C4.09 10.52 3.99 10.28 4 10C4 9.71 4.09 9.47 4.28 9.28C4.48 9.09 4.71 8.99 5 9L8 9C8.28 9 8.52 9.09 8.71 9.28C8.9 9.47 9 9.71 9 10C9 10.28 8.9 10.52 8.71 10.71C8.51 10.9 8.28 11 8 11L5 11ZM5 7C4.71 7 4.47 6.9 4.28 6.71C4.09 6.52 3.99 6.28 4 6C4 5.71 4.09 5.47 4.28 5.28C4.48 5.09 4.71 4.99 5 5L13 5C13.28 5 13.52 5.09 13.71 5.28C13.9 5.48 14 5.71 14 6C14 6.28 13.9 6.52 13.71 6.71C13.52 6.9 13.28 7 13 7L5 7Z"
          fill="#5ED3F3" fill-opacity="0" fill-rule="nonzero"/>
    <path id="Vector"
          d="M3 16L10 16C10.55 16 11 15.55 11 15L11 12C11 11.71 11.09 11.47 11.28 11.28C11.48 11.09 11.71 10.99 12 11L15 11C15.55 11 16 10.55 16 10L16 3C16 2.44 15.55 2 15 2L3 2C2.44 2 2 2.44 2 3L2 15C2 15.55 2.44 16 3 16ZM2 18C1.45 18 0.97 17.8 0.58 17.41C0.19 17.02 -0.01 16.54 0 16L0 2C0 1.45 0.19 0.97 0.58 0.58C0.98 0.19 1.45 -0.01 2 1.9e-6L16 1.9e-6C16.54 1.9e-6 17.02 0.19 17.41 0.58C17.8 0.98 18 1.45 18 2L18 11.58C18 11.85 17.89 12.1 17.7 12.29L12.29 17.7C12.1 17.89 11.85 18 11.58 18L2 18ZM5 11C4.71 11 4.47 10.9 4.28 10.71C4.09 10.52 3.99 10.28 4 10C4 9.71 4.09 9.47 4.28 9.28C4.48 9.09 4.71 8.99 5 9L8 9C8.28 9 8.52 9.09 8.71 9.28C8.9 9.47 9 9.71 9 10C9 10.28 8.9 10.52 8.71 10.71C8.51 10.9 8.28 11 8 11L5 11ZM5 7C4.71 7 4.47 6.9 4.28 6.71C4.09 6.52 3.99 6.28 4 6C4 5.71 4.09 5.47 4.28 5.28C4.48 5.09 4.71 4.99 5 5L13 5C13.28 5 13.52 5.09 13.71 5.28C13.9 5.48 14 5.71 14 6C14 6.28 13.9 6.52 13.71 6.71C13.52 6.9 13.28 7 13 7L5 7Z"
          fill="#4875F0" fill-opacity="0" fill-rule="nonzero"/>
</svg>
