<svg width="20.000000" height="18.103119" viewBox="0 0 20 18.1031" fill="none" xmlns="http://www.w3.org/2000/svg"
>
    <desc>
        Created with Pixso.
    </desc>
    <defs/>
    <rect id="Home" rx="-0.500000" width="15.000000" height="15.000000" transform="translate(2.500000 1.551559)"
          fill="#FFFFFF" fill-opacity="0"/>
    <path id="Vector"
          d="M7.82 17.01L7.82 12.58C7.82 12.02 8.27 11.58 8.82 11.58L11.17 11.58C11.72 11.58 12.17 12.02 12.17 12.58L12.17 17.01C12.17 17.61 12.66 18.1 13.25 18.1L16.51 18.1C17.11 18.1 17.6 17.61 17.6 17.01L17.6 10.4C17.6 9.85 18.05 9.4 18.6 9.4L19.45 9.4C19.95 9.4 20.19 8.78 19.81 8.46L10.72 0.27C10.31 -0.1 9.68 -0.1 9.26 0.27L0.18 8.46C-0.19 8.78 0.04 9.4 0.54 9.4L1.38 9.4C1.94 9.4 2.38 9.85 2.38 10.4L2.38 17.01C2.38 17.61 2.87 18.1 3.47 18.1L6.73 18.1C7.33 18.1 7.82 17.61 7.82 17.01Z"
          fill="#74A2B2" fill-opacity="1.000000" fill-rule="nonzero"/>
    <path id="Vector"
          d="M7.82 17.01L7.82 12.58C7.82 12.02 8.27 11.58 8.82 11.58L11.17 11.58C11.72 11.58 12.17 12.02 12.17 12.58L12.17 17.01C12.17 17.61 12.66 18.1 13.25 18.1L16.51 18.1C17.11 18.1 17.6 17.61 17.6 17.01L17.6 10.4C17.6 9.85 18.05 9.4 18.6 9.4L19.45 9.4C19.95 9.4 20.19 8.78 19.81 8.46L10.72 0.27C10.31 -0.1 9.68 -0.1 9.26 0.27L0.18 8.46C-0.19 8.78 0.04 9.4 0.54 9.4L1.38 9.4C1.94 9.4 2.38 9.85 2.38 10.4L2.38 17.01C2.38 17.61 2.87 18.1 3.47 18.1L6.73 18.1C7.33 18.1 7.82 17.61 7.82 17.01Z"
          fill="#5ED3F3" fill-opacity="0" fill-rule="nonzero"/>
    <path id="Vector"
          d="M7.82 17.01L7.82 12.58C7.82 12.02 8.27 11.58 8.82 11.58L11.17 11.58C11.72 11.58 12.17 12.02 12.17 12.58L12.17 17.01C12.17 17.61 12.66 18.1 13.25 18.1L16.51 18.1C17.11 18.1 17.6 17.61 17.6 17.01L17.6 10.4C17.6 9.85 18.05 9.4 18.6 9.4L19.45 9.4C19.95 9.4 20.19 8.78 19.81 8.46L10.72 0.27C10.31 -0.1 9.68 -0.1 9.26 0.27L0.18 8.46C-0.19 8.78 0.04 9.4 0.54 9.4L1.38 9.4C1.94 9.4 2.38 9.85 2.38 10.4L2.38 17.01C2.38 17.61 2.87 18.1 3.47 18.1L6.73 18.1C7.33 18.1 7.82 17.61 7.82 17.01Z"
          fill="#4875F0" fill-opacity="0" fill-rule="nonzero"/>
</svg>
