<svg width="20.000000" height="20.000000" viewBox="0 0 20 20" fill="none" xmlns="http://www.w3.org/2000/svg"
>
    <desc>
        Created with Pixso.
    </desc>
    <defs/>
    <rect id="Avatar" rx="-0.500000" width="15.000000" height="15.000000" transform="translate(2.500000 2.500000)"
          fill="#FFFFFF" fill-opacity="0"/>
    <path id="Vector"
          d="M17.69 16.37C18.71 15.14 19.43 13.68 19.77 12.11C20.11 10.54 20.07 8.91 19.64 7.36C19.22 5.82 18.43 4.39 17.35 3.21C16.26 2.03 14.9 1.13 13.39 0.59C11.88 0.04 10.26 -0.13 8.67 0.08C7.08 0.3 5.56 0.89 4.24 1.81C2.93 2.74 1.86 3.96 1.12 5.39C0.38 6.81 -0.01 8.39 0 10C0 12.33 0.82 14.59 2.32 16.37L2.3 16.39C2.35 16.45 2.41 16.5 2.46 16.56C2.53 16.63 2.6 16.7 2.66 16.77C2.86 16.99 3.07 17.2 3.29 17.39C3.35 17.45 3.42 17.51 3.49 17.56C3.71 17.76 3.95 17.95 4.19 18.12C4.22 18.14 4.25 18.17 4.28 18.19L4.28 18.19C5.96 19.36 7.96 20 10 20C12.05 20 14.05 19.36 15.72 18.19L15.72 18.19C15.75 18.17 15.78 18.14 15.81 18.12C16.06 17.95 16.29 17.76 16.52 17.56C16.59 17.51 16.65 17.45 16.72 17.39C16.94 17.2 17.14 16.99 17.34 16.77C17.41 16.7 17.48 16.63 17.54 16.56C17.59 16.5 17.65 16.45 17.7 16.38L17.69 16.37ZM10 4.28C10.64 4.28 11.26 4.47 11.79 4.82C12.32 5.18 12.73 5.68 12.97 6.27C13.22 6.85 13.28 7.5 13.16 8.12C13.03 8.75 12.73 9.32 12.28 9.77C11.83 10.22 11.25 10.52 10.63 10.65C10.01 10.77 9.36 10.71 8.77 10.47C8.18 10.22 7.68 9.81 7.33 9.28C6.97 8.75 6.79 8.13 6.79 7.5C6.79 6.64 7.12 5.83 7.73 5.22C8.33 4.62 9.15 4.28 10 4.28ZM4.32 15.92C4.43 15.15 4.79 14.43 5.35 13.88C6.02 13.22 6.92 12.85 7.86 12.85L12.15 12.85C13.09 12.85 13.99 13.22 14.65 13.88C15.21 14.43 15.57 15.15 15.68 15.92C15.72 16.21 15.59 16.49 15.37 16.67C13.86 17.89 11.96 18.57 10 18.57C8.04 18.57 6.15 17.89 4.63 16.67C4.41 16.49 4.28 16.21 4.32 15.92Z"
          fill="#74A2B2" fill-opacity="1.000000" fill-rule="nonzero"/>
    <path id="Vector"
          d="M17.69 16.37C18.71 15.14 19.43 13.68 19.77 12.11C20.11 10.54 20.07 8.91 19.64 7.36C19.22 5.82 18.43 4.39 17.35 3.21C16.26 2.03 14.9 1.13 13.39 0.59C11.88 0.04 10.26 -0.13 8.67 0.08C7.08 0.3 5.56 0.89 4.24 1.81C2.93 2.74 1.86 3.96 1.12 5.39C0.38 6.81 -0.01 8.39 0 10C0 12.33 0.82 14.59 2.32 16.37L2.3 16.39C2.35 16.45 2.41 16.5 2.46 16.56C2.53 16.63 2.6 16.7 2.66 16.77C2.86 16.99 3.07 17.2 3.29 17.39C3.35 17.45 3.42 17.51 3.49 17.56C3.71 17.76 3.95 17.95 4.19 18.12C4.22 18.14 4.25 18.17 4.28 18.19L4.28 18.19C5.96 19.36 7.96 20 10 20C12.05 20 14.05 19.36 15.72 18.19L15.72 18.19C15.75 18.17 15.78 18.14 15.81 18.12C16.06 17.95 16.29 17.76 16.52 17.56C16.59 17.51 16.65 17.45 16.72 17.39C16.94 17.2 17.14 16.99 17.34 16.77C17.41 16.7 17.48 16.63 17.54 16.56C17.59 16.5 17.65 16.45 17.7 16.38L17.69 16.37ZM10 4.28C10.64 4.28 11.26 4.47 11.79 4.82C12.32 5.18 12.73 5.68 12.97 6.27C13.22 6.85 13.28 7.5 13.16 8.12C13.03 8.75 12.73 9.32 12.28 9.77C11.83 10.22 11.25 10.52 10.63 10.65C10.01 10.77 9.36 10.71 8.77 10.47C8.18 10.22 7.68 9.81 7.33 9.28C6.97 8.75 6.79 8.13 6.79 7.5C6.79 6.64 7.12 5.83 7.73 5.22C8.33 4.62 9.15 4.28 10 4.28ZM4.32 15.92C4.43 15.15 4.79 14.43 5.35 13.88C6.02 13.22 6.92 12.85 7.86 12.85L12.15 12.85C13.09 12.85 13.99 13.22 14.65 13.88C15.21 14.43 15.57 15.15 15.68 15.92C15.72 16.21 15.59 16.49 15.37 16.67C13.86 17.89 11.96 18.57 10 18.57C8.04 18.57 6.15 17.89 4.63 16.67C4.41 16.49 4.28 16.21 4.32 15.92Z"
          fill="#5ED3F3" fill-opacity="0" fill-rule="nonzero"/>
    <path id="Vector"
          d="M17.69 16.37C18.71 15.14 19.43 13.68 19.77 12.11C20.11 10.54 20.07 8.91 19.64 7.36C19.22 5.82 18.43 4.39 17.35 3.21C16.26 2.03 14.9 1.13 13.39 0.59C11.88 0.04 10.26 -0.13 8.67 0.08C7.08 0.3 5.56 0.89 4.24 1.81C2.93 2.74 1.86 3.96 1.12 5.39C0.38 6.81 -0.01 8.39 0 10C0 12.33 0.82 14.59 2.32 16.37L2.3 16.39C2.35 16.45 2.41 16.5 2.46 16.56C2.53 16.63 2.6 16.7 2.66 16.77C2.86 16.99 3.07 17.2 3.29 17.39C3.35 17.45 3.42 17.51 3.49 17.56C3.71 17.76 3.95 17.95 4.19 18.12C4.22 18.14 4.25 18.17 4.28 18.19L4.28 18.19C5.96 19.36 7.96 20 10 20C12.05 20 14.05 19.36 15.72 18.19L15.72 18.19C15.75 18.17 15.78 18.14 15.81 18.12C16.06 17.95 16.29 17.76 16.52 17.56C16.59 17.51 16.65 17.45 16.72 17.39C16.94 17.2 17.14 16.99 17.34 16.77C17.41 16.7 17.48 16.63 17.54 16.56C17.59 16.5 17.65 16.45 17.7 16.38L17.69 16.37ZM10 4.28C10.64 4.28 11.26 4.47 11.79 4.82C12.32 5.18 12.73 5.68 12.97 6.27C13.22 6.85 13.28 7.5 13.16 8.12C13.03 8.75 12.73 9.32 12.28 9.77C11.83 10.22 11.25 10.52 10.63 10.65C10.01 10.77 9.36 10.71 8.77 10.47C8.18 10.22 7.68 9.81 7.33 9.28C6.97 8.75 6.79 8.13 6.79 7.5C6.79 6.64 7.12 5.83 7.73 5.22C8.33 4.62 9.15 4.28 10 4.28ZM4.32 15.92C4.43 15.15 4.79 14.43 5.35 13.88C6.02 13.22 6.92 12.85 7.86 12.85L12.15 12.85C13.09 12.85 13.99 13.22 14.65 13.88C15.21 14.43 15.57 15.15 15.68 15.92C15.72 16.21 15.59 16.49 15.37 16.67C13.86 17.89 11.96 18.57 10 18.57C8.04 18.57 6.15 17.89 4.63 16.67C4.41 16.49 4.28 16.21 4.32 15.92Z"
          fill="#4875F0" fill-opacity="0" fill-rule="nonzero"/>
</svg>
