<svg width="7.018524" height="11.880005" viewBox="0 0 7.01852 11.88" fill="none" xmlns="http://www.w3.org/2000/svg" xmlns:xlink="http://www.w3.org/1999/xlink">
	<desc>
			Created with Pixso.
	</desc>
	<defs/>
	<path id="Union" d="M6.73 0.3C6.35 -0.1 5.71 -0.11 5.32 0.28L0.3 5.16C0.08 5.37 -0.02 5.65 0 5.94C-0.02 6.22 0.08 6.5 0.3 6.71L5.32 11.59C5.71 11.98 6.35 11.97 6.73 11.57C7.12 11.18 7.11 10.54 6.71 10.16L2.37 5.94L6.71 1.71C7.11 1.33 7.12 0.69 6.73 0.3Z" fill="#74A2B2" fill-opacity="1.000000" fill-rule="nonzero"/>
	<path id="Union" d="M6.73 0.3C6.35 -0.1 5.71 -0.11 5.32 0.28L0.3 5.16C0.08 5.37 -0.02 5.65 0 5.94C-0.02 6.22 0.08 6.5 0.3 6.71L5.32 11.59C5.71 11.98 6.35 11.97 6.73 11.57C7.12 11.18 7.11 10.54 6.71 10.16L2.37 5.94L6.71 1.71C7.11 1.33 7.12 0.69 6.73 0.3Z" fill="#5ED3F3" fill-opacity="0" fill-rule="nonzero"/>
	<path id="Union" d="M6.73 0.3C6.35 -0.1 5.71 -0.11 5.32 0.28L0.3 5.16C0.08 5.37 -0.02 5.65 0 5.94C-0.02 6.22 0.08 6.5 0.3 6.71L5.32 11.59C5.71 11.98 6.35 11.97 6.73 11.57C7.12 11.18 7.11 10.54 6.71 10.16L2.37 5.94L6.71 1.71C7.11 1.33 7.12 0.69 6.73 0.3Z" fill="#4875F0" fill-opacity="0" fill-rule="nonzero"/>
</svg>
